<?xml version="1.0" encoding="UTF-8"?>
<svg id="Capa_2" data-name="Capa 2" xmlns="http://www.w3.org/2000/svg" viewBox="0 0 100.74 100">
  <defs>
    <style>
      .cls-1 {
        fill: #ea9b6a;
      }
    </style>
  </defs>
  <g id="Capa_1-2" data-name="Capa 1">
    <g>
      <path class="cls-1" d="M28.49,16.36v-5.24h3.35v10.37c0,.63.61,2.83.83,3.56,1.09,3.63,3.23,6.2,5.78,8.89-.15,5.87-.2,12.34,6.8,13.84v-16.55h3.35v11.1l4.41.96,5.33-13.55L37.39,2.32v-.42S39.91.02,39.91.02l22.01,28.9c.19.45.09.82,0,1.27-.92,3.94-4.05,8.91-5.24,12.98-.06.21-.15.4-.1.63,5.8.22,11.65-.84,16.9-3.31,2.21-1.04,5.16-2.41,5.31-5.18.16-2.87-1.97-4.07-4.19-5.23-3.36-1.76-7.33-3.04-11.11-3.45l.43-3.35c.16-.15,2.69.42,3.14.52,3.9.85,11.91,3.69,13.94,7.22.59,1.02.72,2.17,1.17,3.02.78,1.45,2.71,3.39,3.7,5.1,5.49,9.44,6.16,20.98,1.75,31-6.5,14.76-18.54,10.85-31.94,11.42-.74.6-1.44,1.32-2.45,1.43,1.47,2.95-.92,6.57-4.08,6.91-1.45.16-4.37.12-5.84-.03-3.37-.34-12.01-2.3-15.26-3.38-4.25-1.42-9-4.92-13.26-6.65H0v-3.35h15.61c4.36,1.74,9.33,5.44,13.68,6.86,3.1,1.01,11.44,2.91,14.61,3.2.99.09,4.96.14,5.63-.23.94-.53,1.03-2,.24-2.7-.89-.8-4.99-.29-6.47-.44-3.6-.36-7.67-2.03-11.34-2.49l-.49-.31.93-3.03c3.77.44,7.98,2.21,11.7,2.51,1.82.14,6.47.24,8.17-.02s1.88-2.8.18-3.29l-9.15-.07-11.82-2.79.93-3.03c3.77.44,7.98,2.21,11.7,2.51s7.78-.22,11.52-.02c1.85-.29,1.85-3.04,0-3.33-3.56-.56-8.43.39-12.14-.02l-11.96-2.71.88-3.14c3.77.44,7.98,2.21,11.7,2.51,1.82.14,6.47.24,8.17-.02s1.88-2.8.18-3.29c-2.97-.27-6.22.23-9.15-.07-3.41-.34-11.6-2.23-14.93-3.3-3.97-1.27.49-4.24,1.71-5.68,1.77-2.1,3.15-4.99,3.24-7.75h-4.09l-10.27,10.06H0v-3.35h17.7l10.31-10.01c.54-.14,1.19.14,1.64-.25.31-.27,1.43-2.96,1.82-3.63.91-1.55,2.04-2.96,3.05-4.44-3.35-3.66-5.28-8.06-6.05-12.96L12.16,2.22c0-.15,1.91-1.81,2.18-2,.18-.13.29-.36.54-.11l13.61,16.24ZM48.6,45.9v4.29c0,.55-1.02,1.1-1.57,1.16-3.71.42-8.14-2.49-10.16-5.45-.3,3.12-1.28,6.02-2.98,8.65-.24.37-2.07,2.43-1.84,2.66l11.65,2.49c2.94.3,8.81-.71,11.08.86,1.82,1.27,2.87,4.03,1.78,6.07,5,1.39,5.02,8.24,0,9.64l.42,1.88c5.07-.3,10.59.41,15.6,0,9.48-.77,13.22-9.98,14.35-18.22-4.04,2.17-8.28,3.91-12.68,5.23l-.94-3.35c4.88-1.22,9.47-3.37,13.78-5.91.09-2.52-.39-5.06-1.01-7.5-3.51,2.69-7.58,4.8-11.81,6.06l-1.18-3.13c4.16-1.4,8.57-3.29,11.7-6.44.13-.51-2.87-6.12-3.43-6.34l-1.47,1.88c-8.92,6.52-20.67,8.13-31.32,5.45ZM35.61,42.96l-.62-3.35-1.68,3.35h2.3Z"/>
      <path class="cls-1" d="M16.76,84.86h3.35c-.83,4.06,4.36,6.18,7.43,7.34,15.66,5.91,48.34,6.12,63.73-.6,2.43-1.06,6.42-2.96,5.93-6.11-3.89,2.54-8.31,4.03-12.82,5.09-10.04,2.38-20.46,2.76-30.76,2.66v-3.35h9.54c8.15-.27,25.94-2.09,32.25-7.34,5-4.15-2.24-6.79-5.46-8.37l.97-2.93c2.62.59,6.3,2.49,8.06,4.59,2.04,2.45,1.87,7.88,1.58,11.01-.68,7.45-15.8,10.58-21.75,11.56-15.17,2.5-37.34,2.38-51.9-2.87-4.71-1.7-11.01-4.66-10.16-10.69Z"/>
      <path class="cls-1" d="M16.13,40.87c1.41-4.88,4.09-9.3,7.04-13.39l2.07-2.32,2.41,2.2c-3.63,4.19-6.48,9.04-8.36,14.26l-3.15-.75Z"/>
      <path class="cls-1" d="M97.21,39.82c-1.85-5.31-5.27-10-9.01-14.14l2.62-2.18c3.94,4.42,7.38,9.37,9.5,14.94l-3.11,1.38Z"/>
      <path class="cls-1" d="M97.21,56.37c.05,3.54-.5,7.07-1.36,10.48l-3.25-.84c.81-3.14,1.28-6.38,1.26-9.63h3.35Z"/>
      <path class="cls-1" d="M88.76,32.09c.59-.16,1.69,1.76,2.04,2.3,1.27,1.94,2.27,4.07,3.26,6.16l-2.86,1.34-4.65-7.67c-.2-.47,1.99-2.07,2.22-2.13Z"/>
      <path class="cls-1" d="M23.25,40.65c.59-1.31,1.16-2.64,1.85-3.91.39-.71,2.54-4.3,2.97-4.58.39-.25,2.28,1.14,2.54,1.47.18.23.19.25.11.54-.17.62-1.98,2.97-2.47,3.84-.7,1.22-1.24,2.55-1.84,3.82l-3.15-1.17Z"/>
      <path class="cls-1" d="M66.83,53.23l.4,3.12c-.11.18-3.08.61-3.31.42l-.35-3.13,3.26-.41Z"/>
      <rect class="cls-1" x="63.67" y="63.48" width="3.38" height="3.38" transform="translate(-7.62 8.66) rotate(-7.16)"/>
    </g>
  </g>
</svg>