<?xml version="1.0" encoding="UTF-8"?>
<svg id="Capa_2" data-name="Capa 2" xmlns="http://www.w3.org/2000/svg" viewBox="0 0 79.66 100">
  <defs>
    <style>
      .cls-1 {
        fill: #ea9b6a;
      }
    </style>
  </defs>
  <g id="Capa_1-2" data-name="Capa 1">
    <g>
      <path class="cls-1" d="M16.95,45.76c1.18.1,3.27-.49,3.48,1.11l-.11,47.91c-3.54,2.19-8.86,2.36-12.81,1.17-1.03-.31-2.61-.63-2.8-1.89l-.02-46.97c.11-1.84,2.38-1.22,3.68-1.32v-5.41c0-1.76-2.2-4.77-2.71-6.68-.29-1.09-.49-2.61-.55-3.74-.49-8.2.37-16.87,0-25.13.04-.64.39-1.34,1.12-1.33,4.01.41,9.01-.52,12.89,0,.42.06.72.12.87.56l.04,27.73c.22,2.52-3.06,6.12-3.06,8.17v5.82ZM17.97,5.53H7.15v4.7h10.83v-4.7ZM17.97,12.27H7.46l-.31.31v17.77c0,3.69,3.27,6.88,3.27,9.8v5.62h4.49v-6.03c0-2.17,3.06-5.78,3.06-7.76V12.27ZM18.38,47.81H7.05l-.31.31v5.41h11.64v-5.72ZM18.38,55.57H7.05l-.31.31v37.68c3.64,1.3,8.09,1.64,11.64-.1v-37.89Z"/>
      <path class="cls-1" d="M39.22,44.95h3.57c.08,0,.5.51.56.67l.11,47.8c-.2.9-1.14,1.09-1.89,1.37-4.28,1.63-9.66,1.37-13.69-.82v-48.62c.52-.52,1.27-.41,1.94-.41l.04-39.68c.22-.77.8-1.22,1.59-.86l12.83,25.38c.09.54-.32,1.29-.54,1.82-.56,1.34-4.53,8.84-4.53,9.36v3.98ZM31.86,9.82v8.27l8.17,16.14,1.2-2.07.84-2.03-.15-.64-10.06-19.67ZM37.17,44.95v-4.39c0-.23,1.61-3.01,1.75-3.57v-.41s-7.06-13.68-7.06-13.68v22.06h5.31ZM41.46,46.99h-11.64v5.72h11.64v-5.72ZM41.46,54.75h-11.64v37.99c3.86,1.4,7.78,1.31,11.64,0v-37.99Z"/>
      <path class="cls-1" d="M63.27.07c8.2-.79,15.33,5.01,16.39,13.11l-.03,74.13c-3.19,17.72-28.05,16.49-30.01-1.2l.03-72.29c.71-7.01,6.57-13.07,13.62-13.75ZM55.42,94.1c7.56,7.63,20.45,3.54,22.17-7V13c-2.89-15.28-24.17-14.03-25.91,1.21v71.7c.29,3.06,1.58,6.01,3.74,8.19Z"/>
      <path class="cls-1" d="M0,66.7c1.01-.8,1.85-.45,2.02.84.74,5.58-.52,12.64.03,18.37-.2,2.22-2.05,1.53-2.05,1.01v-20.22Z"/>
      <path class="cls-1" d="M0,58.94c.16-.52,1.3-.65,1.73-.09s.44,3.38.23,4.08c-.38,1.26-1.95.78-1.95.3v-4.29Z"/>
      <path class="cls-1" d="M59.89,37.44c.5-.51,1.5-.13,1.7.55l.1,46.69c.21,1.56-1.86,1.93-2.06.41v-46.59c.03-.32.03-.83.26-1.06Z"/>
      <path class="cls-1" d="M70.62,49.8c-.49.49-1.38.23-1.68-.36l-.11-27.27c.06-1.12,1-1.72,1.86-.83l.2,27.39c-.03.32-.03.84-.26,1.06Z"/>
      <path class="cls-1" d="M69.8,57.84c.57-.08,1.09.56,1.09,1.09-.49,6.49.62,13.86,0,20.24-.16,1.62-1.87,1.59-2.06,0-.71-6.19.55-13.7,0-20.03-.12-.6.42-1.21.98-1.29Z"/>
      <path class="cls-1" d="M59.64,13.59c.16-.97,1.74-.91,2,.25-.17,3.59.38,7.66.05,11.2-.2,2.22-2.05,1.53-2.05,1.01v-12.46Z"/>
    </g>
  </g>
</svg>