<?xml version="1.0" encoding="UTF-8"?>
<svg id="Capa_2" data-name="Capa 2" xmlns="http://www.w3.org/2000/svg" viewBox="0 0 125.21 100">
  <defs>
    <style>
      .cls-1 {
        fill: #ea9b6a;
      }
    </style>
  </defs>
  <g id="Capa_1-2" data-name="Capa 1">
    <g>
      <path class="cls-1" d="M125.21,50.63c-.65,1.5-1.59,2.94-3.22,3.5-.19.07-1.7.41-1.79.41h-11.86v38.51c0,2.94-4.53,6.29-7.28,6.66-2.44.33-10.76.41-13.13.05-2.72-.42-2.89-4.11-.39-4.76,3.36-.87,9.33.45,13.03-.17,1.42-.24,2.52-1.39,2.86-2.77l.02-84.11c-.16-1.32-1.21-2.55-2.5-2.88l-76.67.02c-1.62.66-2.36,1.85-2.52,3.59v82.43c.09,1.97,1.35,3.46,3.31,3.79h41.32c2.36.64,2.73,3.49.56,4.7l-42.12.18c-3.47.02-7.95-3.97-7.95-7.45v-44.87h-5.87v12.35c0,.08-.69,1.21-.85,1.35-1.21,1.07-4.04.19-4.04-1.11v-17.97H2.08c-.72,0-1.98-1.32-2.07-2.1-.11-.86.8-2.79,1.59-2.79h4.52v-17.97c0-.89,1.68-1.85,2.55-1.82s2.34,1.2,2.34,2.06v12.35h5.87V7.47C16.88,3.98,21.34-.02,24.82,0h75.81c2.84-.15,7.71,3.99,7.71,6.73v9.17h12.59c1.74,0,3.78,2.37,4.28,3.91v30.81ZM120.31,20.79h-11.62l-.37.37v28.12l.37.37h11.62v-28.85ZM16.88,36.69h-5.87v5.87h5.87v-5.87Z"/>
      <path class="cls-1" d="M31.97,11.8l60.6-.07c2.46.18,4.2,2.38,4.28,4.77v66.77c-.2,2.34-1.26,3.79-3.43,4.64l-61.81-.07c-1.34-.6-2.21-1.48-2.81-2.81l-.19-69.51c.33-1.8,1.66-3.11,3.36-3.73ZM91.95,16.64h-58.44v55.26h15.65c-2.45-7.14-4.49-14.03.05-20.86.78-1.18,4.46-4.42,4.55-4.74.28-.9-1.1-5.69-1.17-7.29-.1-2.22.26-4.45,2.73-5.09,1.77-.45,12.18-.42,14.24-.14,5.34.73,2.36,8.94,1.9,12.27,2.68,2.42,4.96,4.71,6.26,8.18,2.39,6.38.24,11.52-1.41,17.67h15.65V16.64ZM67.74,38.65h-10.27c.21,3.83,2.7,7.39,0,10.88-.87,1.13-2.32,1.91-3.3,3.06-5.34,6.32-1.62,12.44-.11,19.31l17.14-.13c1.38-5.79,4.51-11.41,1.3-17.2-2.06-3.71-6.35-4.61-5.97-9.43.08-.97,1.67-6.03,1.22-6.48ZM91.95,76.79h-58.44v6.6l58.44-.24v-6.36Z"/>
      <path class="cls-1" d="M76.48,94.93c3.37-.75,4.14,4.45.9,4.84-3.06.36-3.81-4.19-.9-4.84Z"/>
      <path class="cls-1" d="M113.9,37.72c3.76-.62,3.86,5.18.21,4.82-2.79-.27-2.9-4.38-.21-4.82Z"/>
      <path class="cls-1" d="M113.64,27.45c3.64-.82,4.32,4.51.9,4.84-2.87.28-3.55-4.24-.9-4.84Z"/>
    </g>
  </g>
</svg>