<?xml version="1.0" encoding="UTF-8"?>
<svg id="Capa_2" data-name="Capa 2" xmlns="http://www.w3.org/2000/svg" viewBox="0 0 111.11 100">
  <defs>
    <style>
      .cls-1 {
        fill: #ea9b6a;
      }
    </style>
  </defs>
  <g id="Capa_1-2" data-name="Capa 1">
    <g>
      <path class="cls-1" d="M.03,92.65c.18-1.44,1.02-4.1,1.46-5.59,3.76-12.59,11.67-22.2,25.43-23.7-4.1-9.82-3.33-20.83,2.43-29.79.54-.85,2.48-3.02,2.57-3.72l-2.81-23.85c.44-3.19,2.91-5.37,6-5.94l40.29-.06c3.55.34,6.49,2.95,6.63,6.63l-2.83,23.43c8.22,9.75,10.1,23.94,3.9,35.26,6.01-1.23,12.07-3.64,18.04-4.84,8.13-1.64,13.24,5.27,7.56,11.68-10.3,4.88-20.88,9.53-31.46,13.88-7.89,3.24-15.63,6.82-24.38,6.85l-17.76-.24c-2.11,3.53-2.28,6.79-7.19,7.18-7.44.59-15.67-.44-23.2-.03-2.57-.51-3.91-2.39-4.68-4.75.07-.76-.09-1.65,0-2.39ZM75.92,19.94l1.76-13.32c0-1.01-1.11-1.83-1.95-2.17l-39.81-.11c-1.06.13-2.06.91-2.45,1.9l1.83,13.74,40.62-.04ZM75.29,24.31h-39.47l.46,4.32,38.45.04.57-4.35ZM32.35,37.32h10.09c.06,0,.95.53,1.07.66,1.09,1.17.52,3.09-.96,3.58l-12.4.23c-2.36,6.81-1.96,14.7,1.54,21.03,2.4.3,4.87.17,7.27.32,4.4.29,8.8.93,13.24.66,6.43-.39,13.33-2.35,19.76-2.8,3.05-.21,5.16.57,7.02,3.01,5.46-9.89,4.42-22.37-3.03-30.92l-40.45-.1c-.64.06-3.38,4.13-3.15,4.34ZM103,64.5l-23.59,6.34c-4.38,4.11-11.12,6.43-16.8,8.36-1.51.51-5.87,2.11-7.18,2.15-1.97.06-3.02-2.54-1.5-3.89,5.75-1.99,11.64-3.69,17.18-6.25,1.88-.86,6.24-2.46,3.94-5.11-1.08-1.25-2.93-.7-4.39-.54-8.41.9-16.17,2.92-24.77,2.58-9.09-.36-17.51-2.27-26.27,1.69-8.35,3.77-13.31,13.49-14.93,22.16-.26,1.38-.89,3.25,1.08,3.48,6.79.8,15.15-.59,22.11-.02l1.32-.63c.81-1.47,2.29-6.09,3.95-6.46,9.77-.51,19.75,1.41,29.29-1.29,4.58-1.3,9.49-3.55,13.93-5.38,9.85-4.07,19.55-8.55,29.36-12.72,2.36-2.38.34-4.84-2.73-4.47Z"/>
      <path class="cls-1" d="M51.16,37.37c3.09-.59,3.6,3.95.79,4.29s-3.46-3.78-.79-4.29Z"/>
    </g>
  </g>
</svg>