<?xml version="1.0" encoding="UTF-8"?>
<svg id="Capa_2" data-name="Capa 2" xmlns="http://www.w3.org/2000/svg" viewBox="0 0 100 100">
  <defs>
    <style>
      .cls-1 {
        fill: #ea9b6a;
      }
    </style>
  </defs>
  <g id="Capa_1-2" data-name="Capa 1">
    <g>
      <path class="cls-1" d="M3.52,100c-.77-.36-1.41-.98-1.55-1.87-.32-2.04-.21-8.16-.02-10.35.05-.53.18-1.22.5-1.65.2-.26,1.13-.79,1.36-.79h11.43c-5.48-8.95-11.13-18.41-13.81-28.67-2.91-11.13-1.72-19.1,6.87-27,3.02-2.78,10.3-7.04,10.66-11.22.28-3.26.3-8.44-1.49-11.22-1.35-2.1-6.96-5.53-2.33-7.25l31.8.05c1.5.67,1.81,1.84.92,3.18-1.41,2.12-3.42,2.99-4.45,5.71-.79,2.09-1.03,9.12-.28,11.12,1.16,3.07,7.59,7.15,10.19,9.53,4.14,3.79,7.41,8.38,8.17,14.09.35,2.58.16,4.9.05,7.47,7.24,1.36,14.42,6.64,13.16,14.86l19.52,19.55c.92,1.61-.7,3.38-2.44,2.83-1.06-.34-5.53-5.77-5.95-5.77l-3.79,3.83,10.42,10.63c.74,1.21-.12,2.39-1.25,2.91h-.98l-.98-.68-24.29-24.11c-3.79.65-7.81-1.18-10.17-4.12l-8.3,14.26h11.43c.23,0,1.17.53,1.36.79.33.42.45,1.12.5,1.65.2,2.29.27,7.95-.03,10.15-.14,1.01-.63,1.66-1.55,2.07H3.52ZM41.8,3.91h-21.87c1.3,1.81,2.3,3.71,2.71,5.94l16.3.12c.63-2.2,1.46-4.23,2.86-6.06ZM38.87,13.87h-16.01l-.2,6.84h16.41l-.2-6.84ZM55.66,38.67c.2-.18-1.71-2.72-1.96-3.02-2.77-3.47-6.65-5.9-9.96-8.79-.86-.75-1.69-2.15-2.82-2.26l-20.67.05c-4.59,4.78-10.99,7.9-14.2,13.92,1.87.04,3.92.59,5.27,1.96.99,1,1.44,2.74,3.24,2.82,1.93.08,2.38-1.54,3.4-2.63,2.45-2.63,6.69-2.75,9.38-.39,1.23,1.08,1.7,3.11,3.79,3.02,1.84-.08,2.18-1.67,3.16-2.7,2.12-2.23,5.8-2.62,8.38-1,1.76,1.1,2.54,3.8,4.67,3.7,1.64-.07,1.98-1.31,2.84-2.24,1.51-1.62,3.17-2.6,5.47-2.44ZM51.86,50.59c1.67-.28,4.01.2,5.76,0,.02-2.59,1.47-9.13-3.13-7.92-1.18.31-1.6,1.55-2.33,2.35-2.13,2.32-5.59,2.88-8.31,1.27-2.19-1.29-2.44-4.22-5.42-3.67-1.32.24-1.69,1.54-2.48,2.4-2.58,2.82-7.08,2.93-9.77.19-.96-.99-1.13-2.4-2.85-2.62-2.52-.32-2.57,1.42-3.88,2.73-2.56,2.54-6.98,2.49-9.48-.1-1.37-1.41-1.66-3.24-4.3-2.55-2.78.73-1.55,6.75-1.36,8.89,2.2-.75,4.63-.37,6.45,1.07,1.65,1.31,2.01,3.76,4.7,3.14,1.35-.31,1.54-1.33,2.33-2.17,3.09-3.28,7.07-3.27,10.16,0,.79.83.97,1.85,2.33,2.17,2.79.65,3.19-2.15,5.03-3.4,2.2-1.49,4.94-1.58,7.23-.26,2.14,1.22,3.19,5.19,6.18,3.32,2.21-1.38.54-4.42,3.16-4.85ZM63.28,55.67c-3.02-1.02-6.2-1.31-9.38-1.18-.05,3.66.51,7.31,1.78,10.73,1.5-.04,2.97-.89,3.88-2.04,1.07-1.35,1.17-3.16,1.92-4.72.46-.95,1.25-1.88,1.79-2.8ZM31.55,79.88h-14.94l3.46,5.47,21.7-.04c3.81-5.91,7.66-11.91,10.38-18.4-.91-2.52-1.59-5.08-1.95-7.73-2.48,1.02-5.38.73-7.42-1.07-1.2-1.06-1.65-2.98-3.62-3.04-1.87-.06-2.24,1.38-3.21,2.45-2.73,3.01-7.23,2.99-9.97,0-1.1-1.2-1.42-2.71-3.56-2.4-1.53.22-1.82,1.46-2.68,2.4-2.41,2.64-6.54,3.06-9.29.68-1.32-1.15-1.83-3.19-3.89-3.14-.33,0-1.15.19-1.26.52-.25.75,2.56,7.78,3.08,8.99,1.67,3.9,3.72,7.63,5.74,11.35l16.81.09c2.48.42,2.3,3.5.63,3.86ZM66.94,57.64c-1.59.42-2.97,6.1-3.96,7.58-1.2,1.81-3.07,2.71-4.96,3.63,5.49,6.37,15.66,0,12.26-7.77-.35-.79-2.51-3.66-3.33-3.44ZM69.34,73.64l9.71,9.94c.24.09.37-.04.56-.16.31-.21,3.35-3.22,3.39-3.46l-9.67-9.83c-.25-.06-1.65,1.88-2.04,2.24-.51.47-1.29,1.03-1.95,1.27ZM55.86,96.09v-6.54l-.29-.29H6.16l-.29.29v6.54h50Z"/>
      <path class="cls-1" d="M100,91.41v1.17c-.44,1.46-2.61,1.96-3.52.69-1.71-2.4,2.12-4.54,3.52-1.86Z"/>
      <path class="cls-1" d="M77.87,20.75c.63-.14,2.78-.13,3.48-.05,1.75.2,2.25,2.57.75,3.49-.99.61-3.66.63-4.63,0-1.33-.85-1.05-3.12.41-3.45Z"/>
      <path class="cls-1" d="M73.19,25.44c1.02-.23,2.3.16,2.55,1.27.13.58.13,3.05,0,3.63-.4,1.8-3.41,1.81-3.82-.2-.25-1.24-.31-4.34,1.27-4.7Z"/>
      <path class="cls-1" d="M73.38,13.52c.72-.16,1.81.21,2.18.86.32.56.33,3.53.13,4.19-.58,1.9-3.48,1.62-3.81-.51-.21-1.36-.22-4.16,1.5-4.54Z"/>
      <path class="cls-1" d="M66.16,20.75c1.2-.27,4.39-.35,4.85,1.12.84,2.7-2.4,2.98-4.29,2.73-2.52-.34-2.38-3.44-.56-3.85Z"/>
      <path class="cls-1" d="M38.61,76.04c2.26-.11,2.79,3.48.54,3.84-3.1.49-3.14-3.71-.54-3.84Z"/>
    </g>
  </g>
</svg>